<?xml version="1.0" encoding="UTF-8" standalone="no"?>
<svg
   data-name="Layer 1"
   width="971.0518"
   height="628.38145"
   viewBox="0 0 971.0518 628.38145"
   version="1.1"
   id="svg15"
   sodipodi:docname="girl.svg"
   inkscape:version="1.3.2 (091e20e, 2023-11-25)"
   xmlns:inkscape="http://www.inkscape.org/namespaces/inkscape"
   xmlns:sodipodi="http://sodipodi.sourceforge.net/DTD/sodipodi-0.dtd"
   xmlns="http://www.w3.org/2000/svg"
   xmlns:svg="http://www.w3.org/2000/svg">
  <defs
     id="defs15" />
  <sodipodi:namedview
     id="namedview15"
     pagecolor="#ffffff"
     bordercolor="#999999"
     borderopacity="1"
     inkscape:showpageshadow="2"
     inkscape:pageopacity="0"
     inkscape:pagecheckerboard="0"
     inkscape:deskcolor="#d1d1d1"
     inkscape:zoom="0.39136364"
     inkscape:cx="272.12543"
     inkscape:cy="347.5029"
     inkscape:window-width="1440"
     inkscape:window-height="869"
     inkscape:window-x="0"
     inkscape:window-y="0"
     inkscape:window-maximized="0"
     inkscape:current-layer="svg15" />
  <ellipse
     style="fill:#ffffff;stroke-width:1.15128"
     id="path10"
     cx="495.98517"
     cy="351.23627"
     rx="472.67386"
     ry="420.78589" />
  <ellipse
     cx="566.74152"
     cy="242.94289"
     fill="#2f2e41"
     id="circle4"
     inkscape:label="circle4"
     rx="37.601971"
     ry="35.468349"
     style="stroke-width:1.0034" />
  <path
     d="m 577.21756,208.45083 a 37.607167,35.473252 0 0 1 33.10121,52.30127 37.593003,35.459891 0 1 0 -62.45798,-38.96367 37.509246,35.380888 0 0 1 29.35677,-13.3376 z"
     fill="#2f2e41"
     id="path5"
     style="stroke-width:1.0034" />
  <ellipse
     cx="496.47681"
     cy="138.67944"
     fill="#2f2e41"
     id="circle5"
     rx="110.45576"
     ry="104.18826"
     style="stroke-width:1.0034" />
  <path
     d="m 409.78705,74.035581 a 110.4359,104.16953 0 0 1 153.0777,-10.924277 c -0.90324,-0.809884 -1.79691,-1.626336 -2.73545,-2.413329 A 110.45578,104.18827 0 0 0 413.35486,216.43318 c 0.93856,0.787 1.90284,1.52851 2.86133,2.27972 A 110.436,104.16961 0 0 1 409.78705,74.035581 Z"
     fill="#2f2e41"
     id="path6"
     style="stroke-width:1.0034" />
  <ellipse
     cx="495.54083"
     cy="174.88046"
     fill="#ffb8b8"
     id="circle6"
     rx="71.140991"
     ry="67.104294"
     style="stroke-width:1.0034" />
  <path
     d="m 531.88235,260.2016 -76.13063,3.22827 c 0,0 6.35422,37.13709 -34.83267,40.66892 -41.18688,3.53182 -78.62955,-7.06361 -93.6066,19.42492 -14.97704,26.48851 -8.52163,120.8073 -8.52163,120.8073 0,0 28.08196,95.35874 50.54753,109.48599 22.46556,14.12724 219.03939,-5.2977 219.03939,-5.2977 l 82.26746,-97.98177 -2.78637,-75.56372 c -1.45507,-39.45931 -39.64881,-69.08517 -80.78498,-61.78285 q -1.21175,0.21511 -2.44032,0.46329 c 0,0 -9.03734,-6.37102 -33.83275,-18.06525 -15.16314,-7.15135 -18.91843,-35.3874 -18.91843,-35.3874 z"
     fill="#cacaca"
     id="path7"
     style="stroke-width:1.0034" />
  <path
     d="m 366.6272,302.33289 c 0,0 18.09425,30.96814 10.60574,75.11572 -7.48852,44.14757 23.93169,137.51853 23.93169,137.51853 l 22.46561,-5.29768 c 0,0 -14.97705,-91.82698 -11.23277,-113.0178 3.74429,-21.19082 4.7774,-83.72338 -13.94391,-94.31877 -18.72131,-10.59539 -31.82636,0 -31.82636,0 z"
     fill="#2f2e41"
     id="path8"
     style="stroke-width:1.0034" />
  <path
     d="m 583.31666,318.57053 7.86926,195.51363 14.97701,8.82951 c 0,0 21.52951,-214.55718 10.29674,-214.55718 h -22.85568 a 10.300847,9.7163542 0 0 0 -10.30082,9.71637 q 0,0.24896 0.0135,0.49767 z"
     fill="#2f2e41"
     id="path9"
     style="stroke-width:1.0034" />
  <ellipse
     cx="411.4613"
     cy="501.72287"
     fill="#6c63ff"
     id="circle9"
     rx="9.3606682"
     ry="8.829524"
     style="stroke-width:1.0034" />
  <ellipse
     cx="598.6745"
     cy="510.55237"
     fill="#6c63ff"
     id="circle10"
     rx="9.3606577"
     ry="8.8295135"
     style="stroke-width:1.0034" />
  <polygon
     points="432.034,126.928 443.269,126.928 443.269,58.069 323.672,58.069 323.672,126.928 339.619,126.928 359.914,105.183 357.196,126.928 427.685,126.928 423.336,105.183 "
     fill="#2f2e41"
     id="polygon10"
     transform="matrix(1.0331418,0,0,0.97451902,100.29742,34.410043)" />
  <ellipse
     cx="423.46371"
     cy="160.75322"
     rx="5.6163864"
     ry="9.7124662"
     fill="#ffb8b8"
     id="ellipse10"
     style="stroke-width:1.0034" />
  <ellipse
     cx="567.61786"
     cy="160.75322"
     rx="5.6163864"
     ry="9.7124662"
     fill="#ffb8b8"
     id="ellipse11"
     style="stroke-width:1.0034" />
  <path
     d="m 723.43873,627.35238 v 5.91533 a 13.782483,13.000435 0 0 1 -0.94017,4.74591 14.136964,13.334802 0 0 1 -1.00214,1.94903 13.882533,13.094807 0 0 1 -11.9328,6.39285 H 248.21415 a 13.882708,13.094973 0 0 1 -11.93277,-6.39285 14.14335,13.340824 0 0 1 -1.00215,-1.94903 13.783404,13.001301 0 0 1 -0.94017,-4.74591 v -5.91533 a 13.871354,13.084263 0 0 1 13.86769,-13.08779 h 26.60047 v -2.75789 a 0.57758825,0.54481461 0 0 1 0.57664,-0.54572 h 13.877 a 0.57762958,0.54485359 0 0 1 0.57856,0.54394 v 2.75969 h 8.66807 v -2.75789 a 0.57758825,0.54481461 0 0 1 0.57665,-0.54572 h 13.87698 a 0.57762958,0.54485359 0 0 1 0.57856,0.54394 v 2.75968 h 8.6784 v -2.75789 a 0.57758825,0.54481461 0 0 1 0.57665,-0.54572 h 13.87699 a 0.57762958,0.54485359 0 0 1 0.57857,0.54394 v 2.75969 h 8.66805 v -2.75789 a 0.57758825,0.54481461 0 0 1 0.57667,-0.54573 h 13.87697 a 0.57762958,0.54485359 0 0 1 0.57855,0.54396 v 2.75969 h 8.66806 v -2.75789 a 0.57759858,0.54482434 0 0 1 0.57668,-0.54573 h 13.87698 a 0.57762958,0.54485359 0 0 1 0.57854,0.54395 v 2.75969 h 8.67841 v -2.75789 a 0.57758825,0.54481461 0 0 1 0.57665,-0.54573 h 13.87699 a 0.57762958,0.54485359 0 0 1 0.57856,0.54395 v 2.75969 h 8.66806 v -2.75789 a 0.57760892,0.5448341 0 0 1 0.57667,-0.54573 h 108.68846 a 0.57760892,0.5448341 0 0 1 0.57857,0.54395 v 2.75968 h 8.67839 v -2.75789 a 0.57760892,0.5448341 0 0 1 0.57665,-0.54573 h 13.87699 a 0.5842417,0.55109051 0 0 1 0.57856,0.54573 v 2.75789 h 8.66806 v -2.75789 a 0.57760892,0.5448341 0 0 1 0.57667,-0.54573 h 13.87697 a 0.57760892,0.5448341 0 0 1 0.57856,0.54395 v 2.75969 h 8.66806 v -2.75789 a 0.57760892,0.5448341 0 0 1 0.57666,-0.54573 h 13.87698 a 0.57760892,0.5448341 0 0 1 0.57857,0.54395 v 2.75969 h 8.67839 v -2.75788 a 0.57760892,0.5448341 0 0 1 0.57665,-0.54574 h 13.87699 a 0.57545997,0.54280709 0 0 1 0.56823,0.54574 v 2.75788 h 8.67838 v -2.75788 a 0.57760892,0.5448341 0 0 1 0.57668,-0.54574 h 13.87697 a 0.57760892,0.5448341 0 0 1 0.57855,0.54395 v 2.7597 h 8.66807 v -2.75788 a 0.57760892,0.5448341 0 0 1 0.57667,-0.54575 h 13.87697 a 0.57760892,0.5448341 0 0 1 0.57857,0.54396 v 2.75969 h 40.46817 a 13.871364,13.084272 0 0 1 13.87507,13.0807 z"
     fill="#3f3d56"
     id="path11"
     style="stroke-width:1.0034" />
  <rect
     y="626.38147"
     width="795.31805"
     height="2"
     fill="#3f3d56"
     id="rect11"
     x="50.590034"
     style="stroke-width:0.905001" />
  <path
     d="M 690.27965,382.22215 H 267.67966 a 11.63173,10.97172 0 0 0 -11.63174,10.97172 v 222.10406 a 11.631802,10.971788 0 0 0 11.63171,10.97181 h 422.60002 a 11.631793,10.971778 0 0 0 11.63173,-10.97179 V 393.19387 a 11.63173,10.97172 0 0 0 -11.63173,-10.97172 z"
     fill="#3f3d56"
     id="path12"
     style="stroke-width:1.0034" />
</svg>
